<svg xmlns="http://www.w3.org/2000/svg" viewBox="0 0 24 24"><polygon points="6.084 9.562 6.083 8 2 8 2 16 6.084 16 6.084 14.438 3.625 14.438 3.625 12.683 5.799 12.683 5.799 11.179 3.625 11.179 3.625 9.562 6.084 9.562"/><polygon points="12.323 12.958 9.607 8 7.983 8 7.983 16 9.607 16 9.607 11.066 12.323 16 13.946 16 13.946 8 12.323 8 12.323 12.958"/><polygon points="20.333 8 18.667 14 17 8 15.333 8 17.665 16 19.669 16 22 8 20.333 8"/><path d="M20,18a1,1,0,0,1-1,1H15a3,3,0,0,0-3,3,3,3,0,0,0-3-3H5a1,1,0,0,1-1-1H2a3,3,0,0,0,3,3H9a2,2,0,0,1,2,2h2a2,2,0,0,1,2-2h4a3,3,0,0,0,3-3Z"/><path d="M20,6a1,1,0,0,0-1-1H15a3,3,0,0,1-3-3A3,3,0,0,1,9,5H5A1,1,0,0,0,4,6H2A3,3,0,0,1,5,3H9a2,2,0,0,0,2-2h2a2,2,0,0,0,2,2h4a3,3,0,0,1,3,3Z"/></svg>