<svg xmlns="http://www.w3.org/2000/svg" viewBox="0 0 24 24"><path d="M1.00925,3.00749,1,5H23l-.00908-1.99251A1.99986,1.99986,0,0,0,21,1H3A1.99971,1.99971,0,0,0,1.00925,3.00749ZM4.00669,4.00758a.99917.99917,0,1,1,.99916-.99917A.99919.99919,0,0,1,4.00669,4.00758Zm2.99756-.00092a.99917.99917,0,1,1,.99917-.99916A1.00212,1.00212,0,0,1,7.00425,4.00666Z"/><path d="M1,6V20a2.0006,2.0006,0,0,0,2,2H21a2.00644,2.00644,0,0,0,2-2.00671V6ZM21,19v1H3V8H21Z"/><polygon points="9 18 9.7 17.3 10.4 16.6 9.1 15.3 7.8 14 9.1 12.7 10.4 11.4 9.7 10.7 9 10 7 12 5 14 7 16 9 18"/><polygon points="13.6 16.6 14.3 17.3 15 18 17 16 19 14 17 12 15 10 14.3 10.7 13.6 11.4 14.9 12.7 16.2 14 14.9 15.3 13.6 16.6"/><polygon points="9 18 9.7 17.3 10.4 16.6 9.1 15.3 7.8 14 9.1 12.7 10.4 11.4 9.7 10.7 9 10 7 12 5 14 7 16 9 18"/><polygon points="13.6 16.6 14.3 17.3 15 18 17 16 19 14 17 12 15 10 14.3 10.7 13.6 11.4 14.9 12.7 16.2 14 14.9 15.3 13.6 16.6"/></svg>