<svg xmlns="http://www.w3.org/2000/svg" viewBox="0 0 24 24"><path d="M14,13h6a1.0002,1.0002,0,0,0,1-1V9a1.00024,1.00024,0,0,0-1-1H17L16,7H14a1.0002,1.0002,0,0,0-1,1V9H8V7h2a1.0002,1.0002,0,0,0,1-1V3a1.00024,1.00024,0,0,0-1-1H7L6,1H4A1.0002,1.0002,0,0,0,3,2V6A1.00028,1.00028,0,0,0,4,7H6V20h7v1a1.00028,1.00028,0,0,0,1,1h6a1.0002,1.0002,0,0,0,1-1V18a1.00024,1.00024,0,0,0-1-1H17l-1-1H14a1.0002,1.0002,0,0,0-1,1v1H8V11h5v1A1.00024,1.00024,0,0,0,14,13Z"/><polygon points="7 3 6 2 4 2 4 6 10 6 10 3 7 3" fill="#fff"/><polygon points="17 9 16 8 14 8 14 12 20 12 20 9 17 9" fill="#fff"/><polygon points="17 18 16 17 14 17 14 21 20 21 20 18 17 18" fill="#fff"/></svg>